<?xml version="1.0" encoding="UTF-8" standalone="no"?>
<!-- Created with Inkscape (http://www.inkscape.org/) -->

<svg
   xmlns:dc="http://purl.org/dc/elements/1.1/"
   xmlns:cc="http://creativecommons.org/ns#"
   xmlns:rdf="http://www.w3.org/1999/02/22-rdf-syntax-ns#"
   xmlns:svg="http://www.w3.org/2000/svg"
   xmlns="http://www.w3.org/2000/svg"
   xmlns:sodipodi="http://sodipodi.sourceforge.net/DTD/sodipodi-0.dtd"
   xmlns:inkscape="http://www.inkscape.org/namespaces/inkscape"
   width="24"
   height="24"
   id="svg2999"
   version="1.1"
   inkscape:version="0.48.5 r10040"
   sodipodi:docname="reference-set-none.svg"
   inkscape:export-filename="D:\DATA\cabrian\Desktop\reference-set-plant-32.png"
   inkscape:export-xdpi="300"
   inkscape:export-ydpi="300">
  <defs
     id="defs3001" />
  <sodipodi:namedview
     id="base"
     pagecolor="#ffffff"
     bordercolor="#666666"
     borderopacity="1.0"
     inkscape:pageopacity="0.0"
     inkscape:pageshadow="2"
     inkscape:zoom="5.598901"
     inkscape:cx="-28.038215"
     inkscape:cy="25.716434"
     inkscape:current-layer="layer1"
     showgrid="true"
     inkscape:grid-bbox="true"
     inkscape:document-units="px"
     inkscape:window-width="1920"
     inkscape:window-height="1018"
     inkscape:window-x="-8"
     inkscape:window-y="-8"
     inkscape:window-maximized="1">
    <inkscape:grid
       type="xygrid"
       id="grid3019"
       empspacing="5"
       visible="true"
       enabled="true"
       snapvisiblegridlinesonly="true" />
  </sodipodi:namedview>
  <metadata
     id="metadata3004">
    <rdf:RDF>
      <cc:Work
         rdf:about="">
        <dc:format>image/svg+xml</dc:format>
        <dc:type
           rdf:resource="http://purl.org/dc/dcmitype/StillImage" />
        <dc:title></dc:title>
      </cc:Work>
    </rdf:RDF>
  </metadata>
  <g
     id="layer1"
     inkscape:label="Layer 1"
     inkscape:groupmode="layer"
     transform="translate(0,-8.0000017)">
    <path
       style="color:#000000;fill:#cccccf;fill-opacity:1;stroke:none;stroke-width:3;marker:none;visibility:visible;display:inline;overflow:visible;enable-background:accumulate"
       d="m 2.25,13.979168 0,12.041667 19.5,0 0,-12.041667 -19.5,0 z m 2.25,3.541667 6.75,0 0,2.833333 -6.75,0 0,-2.833333 z m 8.25,0 6.75,0 0,2.833333 -6.75,0 0,-2.833333 z m -8.25,4.25 6.75,0 0,2.833333 -6.75,0 0,-2.833333 z m 8.25,0 6.75,0 0,2.833333 -6.75,0 0,-2.833333 z"
       id="rect4817-3"
       inkscape:connector-curvature="0" />
    <g
       id="g4948"
       transform="matrix(1.2,0,0,1.2,141,8.100002)">
      <path
         inkscape:connector-curvature="0"
         id="path4944"
         d="m -105,12 c 5,5 5,5 5,5"
         style="fill:none;stroke:#d40000;stroke-width:1px;stroke-linecap:butt;stroke-linejoin:miter;stroke-opacity:1" />
      <path
         inkscape:connector-curvature="0"
         id="path4946"
         d="m -105,17 c 0,0 5,-5 5,-5 l 0,0"
         style="fill:none;stroke:#d40000;stroke-width:1px;stroke-linecap:butt;stroke-linejoin:miter;stroke-opacity:1" />
    </g>
  </g>
</svg>
