<?xml version="1.0" encoding="UTF-8" standalone="no"?>
<!-- Created with Inkscape (http://www.inkscape.org/) -->

<svg
   xmlns:dc="http://purl.org/dc/elements/1.1/"
   xmlns:cc="http://creativecommons.org/ns#"
   xmlns:rdf="http://www.w3.org/1999/02/22-rdf-syntax-ns#"
   xmlns:svg="http://www.w3.org/2000/svg"
   xmlns="http://www.w3.org/2000/svg"
   xmlns:sodipodi="http://sodipodi.sourceforge.net/DTD/sodipodi-0.dtd"
   xmlns:inkscape="http://www.inkscape.org/namespaces/inkscape"
   width="167.17126mm"
   height="98.550316mm"
   viewBox="0 0 592.33913 349.19403"
   id="svg2"
   version="1.1"
   inkscape:version="0.91 r13725"
   sodipodi:docname="concepts-1.svg">
  <defs
     id="defs4" />
  <sodipodi:namedview
     id="base"
     pagecolor="#ffffff"
     bordercolor="#666666"
     borderopacity="1.0"
     inkscape:pageopacity="0.0"
     inkscape:pageshadow="2"
     inkscape:zoom="0.45136551"
     inkscape:cx="469.05356"
     inkscape:cy="205.79062"
     inkscape:document-units="px"
     inkscape:current-layer="layer1"
     showgrid="false"
     inkscape:window-width="1366"
     inkscape:window-height="667"
     inkscape:window-x="0"
     inkscape:window-y="28"
     inkscape:window-maximized="1"
     showguides="false"
     fit-margin-top="0"
     fit-margin-left="0"
     fit-margin-right="0"
     fit-margin-bottom="0">
    <inkscape:grid
       type="xygrid"
       id="grid4758"
       originx="-140.88334"
       originy="-550.65935" />
  </sodipodi:namedview>
  <metadata
     id="metadata7">
    <rdf:RDF>
      <cc:Work
         rdf:about="">
        <dc:format>image/svg+xml</dc:format>
        <dc:type
           rdf:resource="http://purl.org/dc/dcmitype/StillImage" />
        <dc:title></dc:title>
      </cc:Work>
    </rdf:RDF>
  </metadata>
  <g
     inkscape:label="Layer 1"
     inkscape:groupmode="layer"
     id="layer1"
     transform="translate(-140.88333,-152.50882)">
    <rect
       style="fill:none;fill-opacity:1;stroke:#cccccc;stroke-width:1.62323511;stroke-miterlimit:4;stroke-dasharray:6.49294055, 1.62323514;stroke-dashoffset:0;stroke-opacity:1"
       id="rect5742"
       width="166.53922"
       height="347.5708"
       x="565.87164"
       y="153.32043" />
    <path
       inkscape:connector-curvature="0"
       style="fill:#f9f9f9;fill-opacity:1;stroke:#000000;stroke-width:2;stroke-miterlimit:4;stroke-dasharray:none;stroke-opacity:1"
       d="m 616.45494,378.72611 a 48.564434,45.431244 0 0 0 -26.3125,7.25196 l 0,76.3125 a 48.564434,45.431244 0 0 0 26.3125,7.29882 48.564434,45.431244 0 0 0 48.56446,-45.43164 48.564434,45.431244 0 0 0 -48.56446,-45.43164 z"
       id="path5191-0-7-0-5" />
    <path
       inkscape:connector-curvature="0"
       style="fill:#f9f9f9;fill-opacity:1;stroke:#000000;stroke-width:2;stroke-miterlimit:4;stroke-dasharray:none;stroke-opacity:1"
       d="m 616.45494,267.90261 a 48.564434,45.431244 0 0 0 -26.3125,7.25196 l 0,76.3125 a 48.564434,45.431244 0 0 0 26.3125,7.29882 48.564434,45.431244 0 0 0 48.56446,-45.43164 48.564434,45.431244 0 0 0 -48.56446,-45.43164 z"
       id="path5191-0-7-0" />
    <path
       inkscape:connector-curvature="0"
       style="fill:#f9f9f9;fill-opacity:1;stroke:#000000;stroke-width:2;stroke-miterlimit:4;stroke-dasharray:none;stroke-opacity:1"
       d="m 616.45493,157.07904 a 48.564434,45.431244 0 0 0 -26.3125,7.25196 l 0,76.3125 a 48.564434,45.431244 0 0 0 26.3125,7.29882 48.564434,45.431244 0 0 0 48.56446,-45.43164 48.564434,45.431244 0 0 0 -48.56446,-45.43164 z"
       id="path5191-0-7" />
    <path
       style="fill:#f9f9f9;fill-opacity:1;stroke:#000000;stroke-width:2;stroke-miterlimit:4;stroke-dasharray:none;stroke-opacity:1"
       d="m 486.30273,224.88281 a 48.564434,45.431244 0 0 0 -26.3125,7.25196 l 0,76.3125 a 48.564434,45.431244 0 0 0 26.3125,7.29882 48.564434,45.431244 0 0 0 48.56446,-45.43164 48.564434,45.431244 0 0 0 -48.56446,-45.43164 z"
       id="path5191-0"
       inkscape:connector-curvature="0" />
    <text
       xml:space="preserve"
       style="font-style:normal;font-weight:normal;font-size:40px;line-height:125%;font-family:sans-serif;letter-spacing:0px;word-spacing:0px;fill:#000000;fill-opacity:1;stroke:none;stroke-width:1px;stroke-linecap:butt;stroke-linejoin:miter;stroke-opacity:1"
       x="595.1803"
       y="310.18179"
       id="text5071-4"
       sodipodi:linespacing="125%"><tspan
         sodipodi:role="line"
         id="tspan5073-5"
         x="595.1803"
         y="310.18179"
         style="font-weight:bold;font-size:12.5px">Schedule</tspan><tspan
         id="tspan5304"
         sodipodi:role="line"
         x="595.1803"
         y="325.80679"
         style="font-weight:bold;font-size:12.5px">Test - 1</tspan></text>
    <rect
       style="fill:#e6e6e6;fill-opacity:1;stroke:#2b0000;stroke-width:0.87945473;stroke-opacity:1"
       id="rect4488-6-0"
       width="38.838108"
       height="15.120545"
       x="597.03595"
       y="278.3736" />
    <text
       xml:space="preserve"
       style="font-style:normal;font-weight:normal;font-size:40px;line-height:125%;font-family:sans-serif;letter-spacing:0px;word-spacing:0px;fill:#ff0000;fill-opacity:1;stroke:none;stroke-width:1px;stroke-linecap:butt;stroke-linejoin:miter;stroke-opacity:1"
       x="601.80658"
       y="266.31281"
       id="text4482-4-1"
       sodipodi:linespacing="125%"><tspan
         sodipodi:role="line"
         id="tspan4484-1-0"
         x="601.80658"
         y="266.31281"
         style="font-style:normal;font-variant:normal;font-weight:normal;font-stretch:normal;font-family:Clean;-inkscape-font-specification:Clean;fill:#ff0000" /><tspan
         sodipodi:role="line"
         x="601.80658"
         y="291.39407"
         style="font-style:normal;font-variant:normal;font-weight:normal;font-stretch:normal;font-size:15px;font-family:Clean;-inkscape-font-specification:Clean;fill:#ff0000"
         id="tspan4486-7-4">100</tspan></text>
    <rect
       style="fill:#e6e6e6;fill-opacity:1;stroke:#2b0000;stroke-width:0.87945473;stroke-opacity:1"
       id="rect4488-7-1-1"
       width="38.838108"
       height="15.120545"
       x="597.03595"
       y="333.17435" />
    <text
       xml:space="preserve"
       style="font-style:normal;font-weight:normal;font-size:40px;line-height:125%;font-family:sans-serif;letter-spacing:0px;word-spacing:0px;fill:#ff0000;fill-opacity:1;stroke:none;stroke-width:1px;stroke-linecap:butt;stroke-linejoin:miter;stroke-opacity:1"
       x="606.85663"
       y="321.11356"
       id="text4482-1-8-7"
       sodipodi:linespacing="125%"><tspan
         sodipodi:role="line"
         id="tspan4484-8-9-1"
         x="606.85663"
         y="321.11356"
         style="font-style:normal;font-variant:normal;font-weight:normal;font-stretch:normal;font-family:Clean;-inkscape-font-specification:Clean;fill:#ff0000" /><tspan
         sodipodi:role="line"
         x="606.85663"
         y="346.19482"
         style="font-style:normal;font-variant:normal;font-weight:normal;font-stretch:normal;font-size:15px;font-family:Clean;-inkscape-font-specification:Clean;fill:#000080"
         id="tspan4486-8-7-6">50</tspan></text>
    <text
       xml:space="preserve"
       style="font-style:normal;font-weight:normal;font-size:64.81230164px;line-height:125%;font-family:sans-serif;letter-spacing:0px;word-spacing:0px;fill:#000000;fill-opacity:1;stroke:none;stroke-width:1px;stroke-linecap:butt;stroke-linejoin:miter;stroke-opacity:1"
       x="-457.65607"
       y="186.16544"
       id="text4291"
       sodipodi:linespacing="125%"
       transform="scale(-0.61716676,1.6203076)"><tspan
         sodipodi:role="line"
         id="tspan4293"
         x="-457.65607"
         y="186.16544">}</tspan></text>
    <text
       xml:space="preserve"
       style="font-style:normal;font-weight:normal;font-size:40px;line-height:125%;font-family:sans-serif;letter-spacing:0px;word-spacing:0px;fill:#000000;fill-opacity:1;stroke:none;stroke-width:1px;stroke-linecap:butt;stroke-linejoin:miter;stroke-opacity:1"
       x="168"
       y="275.67618"
       id="text4305"
       sodipodi:linespacing="125%"><tspan
         sodipodi:role="line"
         id="tspan4307"
         x="168"
         y="275.67618"
         style="font-size:15px">Parameters</tspan></text>
    <text
       xml:space="preserve"
       style="font-style:normal;font-weight:normal;font-size:40px;line-height:125%;font-family:sans-serif;letter-spacing:0px;word-spacing:0px;fill:#ff0000;fill-opacity:1;stroke:none;stroke-width:1px;stroke-linecap:butt;stroke-linejoin:miter;stroke-opacity:1"
       x="311.67267"
       y="248.33884"
       id="text4206"
       sodipodi:linespacing="125%"><tspan
         sodipodi:role="line"
         id="tspan4208"
         x="311.67267"
         y="248.33884"
         style="font-size:15px;fill:#ff0000">MAX-TEMPERATURE</tspan></text>
    <path
       id="path4470"
       d="m 296.31664,251.24539 q 0,1.47641 -1.03349,2.5099 -1.03348,1.03348 -2.50989,1.03348 -1.4764,0 -2.50989,-1.03348 -1.03348,-1.03349 -1.03348,-2.5099 0,-1.10732 0.64593,-2.03008 0.64593,-0.92272 1.71632,-1.31031 l 0,-16.73875 2.36225,0 0,16.73875 q 1.07039,0.38759 1.71632,1.31031 0.64593,0.92276 0.64593,2.03008 z m 2.36225,0 q 0,-1.42104 -0.62747,-2.65753 -0.62748,-1.23648 -1.73478,-2.06696 l 0,-14.17351 q 0,-1.47641 -1.03349,-2.5099 -1.03348,-1.03348 -2.50989,-1.03348 -1.4764,0 -2.50989,1.03348 -1.03348,1.03349 -1.03348,2.5099 l 0,14.17351 q -1.10731,0.83048 -1.73478,2.06696 -0.62747,1.23649 -0.62747,2.65753 0,2.45452 1.72555,4.18007 1.72555,1.72555 4.18007,1.72555 2.45453,0 4.18008,-1.72555 1.72555,-1.72555 1.72555,-4.18007 z m 2.36225,0 q 0,3.41417 -2.42684,5.84104 -2.42684,2.42683 -5.84104,2.42683 -3.41418,0 -5.84103,-2.42683 -2.42684,-2.42687 -2.42684,-5.84104 0,-3.35884 2.36225,-5.77643 l 0,-13.12157 q 0,-2.45452 1.72555,-4.18007 1.72555,-1.72556 4.18007,-1.72556 2.45453,0 4.18008,1.72556 1.72555,1.72555 1.72555,4.18007 l 0,13.12157 q 2.36225,2.41759 2.36225,5.77643 z m 2.36225,-10.63012 0,2.36224 -3.54338,0 0,-2.36224 3.54338,0 z m 0,-4.72449 0,2.36224 -3.54338,0 0,-2.36224 3.54338,0 z m 0,-4.72453 0,2.36225 -3.54338,0 0,-2.36225 3.54338,0 z"
       inkscape:connector-curvature="0"
       style="fill:#ff0000" />
    <rect
       style="fill:#e6e6e6;fill-opacity:1;stroke:#2b0000;stroke-width:0.87945473;stroke-opacity:1"
       id="rect4488"
       width="38.838108"
       height="15.120545"
       x="466.88431"
       y="235.41724" />
    <text
       xml:space="preserve"
       style="font-style:normal;font-weight:normal;font-size:40px;line-height:125%;font-family:sans-serif;letter-spacing:0px;word-spacing:0px;fill:#ff0000;fill-opacity:1;stroke:none;stroke-width:1px;stroke-linecap:butt;stroke-linejoin:miter;stroke-opacity:1"
       x="471.65494"
       y="223.35645"
       id="text4482"
       sodipodi:linespacing="125%"><tspan
         sodipodi:role="line"
         id="tspan4484"
         x="471.65494"
         y="223.35645"
         style="font-style:normal;font-variant:normal;font-weight:normal;font-stretch:normal;font-family:Clean;-inkscape-font-specification:Clean;fill:#ff0000" /><tspan
         sodipodi:role="line"
         x="471.65494"
         y="248.43771"
         style="font-style:normal;font-variant:normal;font-weight:normal;font-stretch:normal;font-size:15px;font-family:Clean;-inkscape-font-specification:Clean;fill:#ff0000"
         id="tspan4486">150</tspan></text>
    <path
       id="path4197-3"
       d="m 296.31667,305.98309 q 0,1.46516 -1.0335,2.49075 -1.0335,1.02562 -2.50992,1.02562 -1.47642,0 -2.50992,-1.02562 -1.03349,-1.02559 -1.03349,-2.49075 0,-1.44684 1.03349,-2.48159 1.0335,-1.03476 2.50992,-1.03476 1.47642,0 2.50992,1.03476 1.0335,1.03475 1.0335,2.48159 z m 2.36227,0 q 0,-1.41021 -0.62748,-2.63727 -0.62748,-1.22707 -1.73479,-2.05121 l 0,-14.06543 q 0,-1.46515 -1.0335,-2.49075 -1.0335,-1.02561 -2.50992,-1.02561 -1.47642,0 -2.50992,1.02561 -1.03349,1.0256 -1.03349,2.49075 l 0,14.06543 q -1.10733,0.82414 -1.7348,2.05121 -0.62748,1.22706 -0.62748,2.63727 0,2.43582 1.72557,4.1482 1.72557,1.7124 4.18012,1.7124 2.45456,0 4.18013,-1.7124 1.72556,-1.71238 1.72556,-4.1482 z m 2.36228,0 q 0,3.38815 -2.42687,5.79651 -2.42687,2.40833 -5.8411,2.40833 -3.41423,0 -5.8411,-2.40833 -2.42687,-2.40836 -2.42687,-5.79651 0,-3.3332 2.36228,-5.7324 l 0,-13.02151 q 0,-2.43581 1.72557,-4.1482 1.72557,-1.7124 4.18012,-1.7124 2.45456,0 4.18013,1.7124 1.72556,1.71239 1.72556,4.1482 l 0,13.02151 q 2.36228,2.3992 2.36228,5.7324 z m 2.36228,-10.54907 0,2.34424 -3.54342,0 0,-2.34424 3.54342,0 z m 0,-4.68848 0,2.34424 -3.54342,0 0,-2.34424 3.54342,0 z m 0,-4.68848 0,2.34424 -3.54342,0 0,-2.34424 3.54342,0 z"
       inkscape:connector-curvature="0"
       style="fill:#000080" />
    <text
       xml:space="preserve"
       style="font-style:normal;font-weight:normal;font-size:40px;line-height:125%;font-family:sans-serif;letter-spacing:0px;word-spacing:0px;fill:#ff0000;fill-opacity:1;stroke:none;stroke-width:1px;stroke-linecap:butt;stroke-linejoin:miter;stroke-opacity:1"
       x="311.67267"
       y="303.13959"
       id="text4206-5"
       sodipodi:linespacing="125%"><tspan
         sodipodi:role="line"
         id="tspan4208-7"
         x="311.67267"
         y="303.13959"
         style="font-size:15px;fill:#000080">MIN-TEMPERATURE</tspan></text>
    <rect
       style="fill:#e6e6e6;fill-opacity:1;stroke:#2b0000;stroke-width:0.87945473;stroke-opacity:1"
       id="rect4488-7"
       width="38.838108"
       height="15.120545"
       x="466.88431"
       y="290.21799" />
    <text
       xml:space="preserve"
       style="font-style:normal;font-weight:normal;font-size:40px;line-height:125%;font-family:sans-serif;letter-spacing:0px;word-spacing:0px;fill:#ff0000;fill-opacity:1;stroke:none;stroke-width:1px;stroke-linecap:butt;stroke-linejoin:miter;stroke-opacity:1"
       x="476.70499"
       y="278.1572"
       id="text4482-1"
       sodipodi:linespacing="125%"><tspan
         sodipodi:role="line"
         id="tspan4484-8"
         x="476.70499"
         y="278.1572"
         style="font-style:normal;font-variant:normal;font-weight:normal;font-stretch:normal;font-family:Clean;-inkscape-font-specification:Clean;fill:#ff0000" /><tspan
         sodipodi:role="line"
         x="476.70499"
         y="303.23846"
         style="font-style:normal;font-variant:normal;font-weight:normal;font-stretch:normal;font-size:15px;font-family:Clean;-inkscape-font-specification:Clean;fill:#000080"
         id="tspan4486-8">20</tspan></text>
    <text
       xml:space="preserve"
       style="font-style:normal;font-weight:normal;font-size:40px;line-height:125%;font-family:sans-serif;letter-spacing:0px;word-spacing:0px;fill:#ff0000;fill-opacity:1;stroke:none;stroke-width:1px;stroke-linecap:butt;stroke-linejoin:miter;stroke-opacity:1"
       x="312.30255"
       y="193.63692"
       id="text4206-5-8"
       sodipodi:linespacing="125%"><tspan
         sodipodi:role="line"
         id="tspan4208-7-6"
         x="312.30255"
         y="193.63692"
         style="font-size:15px;fill:#1a1a1a">CUR-TEMPERATURE</tspan></text>
    <path
       id="path4411"
       d="m 296.31664,196.44458 q 0,1.47641 -1.03349,2.50989 -1.03348,1.03349 -2.50988,1.03349 -1.47641,0 -2.5099,-1.03349 -1.03348,-1.03348 -1.03348,-2.50989 0,-1.10731 0.64593,-2.03005 0.64592,-0.92275 1.71632,-1.31032 l 0,-12.01425 2.36225,0 0,12.01425 q 1.07039,0.38757 1.71632,1.31032 0.64593,0.92274 0.64593,2.03005 z m 2.36225,0 q 0,-1.42103 -0.62747,-2.65752 -0.62748,-1.2365 -1.73478,-2.06698 l 0,-14.17349 q 0,-1.47641 -1.03349,-2.5099 -1.03348,-1.03348 -2.50988,-1.03348 -1.47641,0 -2.5099,1.03348 -1.03348,1.03349 -1.03348,2.5099 l 0,14.17349 q -1.1073,0.83048 -1.73478,2.06698 -0.62747,1.23649 -0.62747,2.65752 0,2.45453 1.72555,4.18008 1.72555,1.72555 4.18008,1.72555 2.45452,0 4.18007,-1.72555 1.72555,-1.72555 1.72555,-4.18008 z m 2.36225,0 q 0,3.4142 -2.42684,5.84104 -2.42685,2.42684 -5.84103,2.42684 -3.41419,0 -5.84104,-2.42684 -2.42684,-2.42684 -2.42684,-5.84104 0,-3.35881 2.36225,-5.77643 l 0,-13.12156 q 0,-2.45453 1.72555,-4.18008 1.72555,-1.72555 4.18008,-1.72555 2.45452,0 4.18007,1.72555 1.72555,1.72555 1.72555,4.18008 l 0,13.12156 q 2.36225,2.41762 2.36225,5.77643 z m 2.36225,-10.63012 0,2.36225 -3.54338,0 0,-2.36225 3.54338,0 z m 0,-4.7245 0,2.36225 -3.54338,0 0,-2.36225 3.54338,0 z m 0,-4.7245 0,2.36225 -3.54338,0 0,-2.36225 3.54338,0 z"
       inkscape:connector-curvature="0" />
    <rect
       style="fill:#e6e6e6;fill-opacity:1;stroke:#2b0000;stroke-width:0.87945473;stroke-opacity:1"
       id="rect4488-5"
       width="38.838108"
       height="15.120545"
       x="466.88431"
       y="180.61644" />
    <text
       xml:space="preserve"
       style="font-style:normal;font-weight:normal;font-size:40px;line-height:125%;font-family:sans-serif;letter-spacing:0px;word-spacing:0px;fill:#ff0000;fill-opacity:1;stroke:none;stroke-width:1px;stroke-linecap:butt;stroke-linejoin:miter;stroke-opacity:1"
       x="471.65494"
       y="168.55565"
       id="text4482-15"
       sodipodi:linespacing="125%"><tspan
         sodipodi:role="line"
         id="tspan4484-5"
         x="471.65494"
         y="168.55565"
         style="font-style:normal;font-variant:normal;font-weight:normal;font-stretch:normal;font-family:Clean;-inkscape-font-specification:Clean;fill:#ff0000" /><tspan
         sodipodi:role="line"
         x="471.65494"
         y="193.63692"
         style="font-style:normal;font-variant:normal;font-weight:normal;font-stretch:normal;font-size:15px;font-family:Clean;-inkscape-font-specification:Clean;fill:#000000"
         id="tspan4486-9">120</tspan></text>
    <text
       xml:space="preserve"
       style="font-style:normal;font-weight:normal;font-size:41.08829117px;line-height:125%;font-family:sans-serif;letter-spacing:0px;word-spacing:0px;fill:#000000;fill-opacity:1;stroke:none;stroke-width:1px;stroke-linecap:butt;stroke-linejoin:miter;stroke-opacity:1"
       x="-290.13483"
       y="195.45081"
       id="text4291-0"
       sodipodi:linespacing="125%"
       transform="scale(-0.97351333,1.0272073)"><tspan
         sodipodi:role="line"
         id="tspan4293-6"
         x="-290.13483"
         y="195.45081">}</tspan></text>
    <text
       xml:space="preserve"
       style="font-style:normal;font-weight:normal;font-size:40px;line-height:125%;font-family:sans-serif;letter-spacing:0px;word-spacing:0px;fill:#000000;fill-opacity:1;stroke:none;stroke-width:1px;stroke-linecap:butt;stroke-linejoin:miter;stroke-opacity:1"
       x="158.06836"
       y="193.76875"
       id="text4305-0"
       sodipodi:linespacing="125%"><tspan
         sodipodi:role="line"
         id="tspan4307-5"
         x="158.06836"
         y="193.76875"
         style="font-size:15px">Live variable</tspan></text>
    <text
       xml:space="preserve"
       style="font-style:normal;font-weight:normal;font-size:40px;line-height:125%;font-family:sans-serif;letter-spacing:0px;word-spacing:0px;fill:#000000;fill-opacity:1;stroke:none;stroke-width:1px;stroke-linecap:butt;stroke-linejoin:miter;stroke-opacity:1"
       x="593.86707"
       y="208.10272"
       id="text5071"
       sodipodi:linespacing="125%"><tspan
         sodipodi:role="line"
         id="tspan5073"
         x="593.86707"
         y="208.10272"
         style="font-weight:bold;font-size:15px">Plant</tspan></text>
    <g
       id="g5229"
       transform="translate(100.26202,-203.63124)">
      <rect
         y="371.18127"
         x="496.7739"
         height="15.120545"
         width="38.838108"
         id="rect4488-6"
         style="fill:#e6e6e6;fill-opacity:1;stroke:#2b0000;stroke-width:0.87945473;stroke-opacity:1" />
      <text
         sodipodi:linespacing="125%"
         id="text4482-4"
         y="359.12048"
         x="501.54453"
         style="font-style:normal;font-weight:normal;font-size:40px;line-height:125%;font-family:sans-serif;letter-spacing:0px;word-spacing:0px;fill:#ff0000;fill-opacity:1;stroke:none;stroke-width:1px;stroke-linecap:butt;stroke-linejoin:miter;stroke-opacity:1"
         xml:space="preserve"><tspan
           style="font-style:normal;font-variant:normal;font-weight:normal;font-stretch:normal;font-family:Clean;-inkscape-font-specification:Clean;fill:#ff0000"
           y="359.12048"
           x="501.54453"
           id="tspan4484-1"
           sodipodi:role="line" /><tspan
           id="tspan4486-7"
           style="font-style:normal;font-variant:normal;font-weight:normal;font-stretch:normal;font-size:15px;font-family:Clean;-inkscape-font-specification:Clean;fill:#ff0000"
           y="384.20175"
           x="501.54453"
           sodipodi:role="line">150</tspan></text>
      <rect
         y="425.98203"
         x="496.7739"
         height="15.120545"
         width="38.838108"
         id="rect4488-7-1"
         style="fill:#e6e6e6;fill-opacity:1;stroke:#2b0000;stroke-width:0.87945473;stroke-opacity:1" />
      <text
         sodipodi:linespacing="125%"
         id="text4482-1-8"
         y="413.92123"
         x="506.59457"
         style="font-style:normal;font-weight:normal;font-size:40px;line-height:125%;font-family:sans-serif;letter-spacing:0px;word-spacing:0px;fill:#ff0000;fill-opacity:1;stroke:none;stroke-width:1px;stroke-linecap:butt;stroke-linejoin:miter;stroke-opacity:1"
         xml:space="preserve"><tspan
           style="font-style:normal;font-variant:normal;font-weight:normal;font-stretch:normal;font-family:Clean;-inkscape-font-specification:Clean;fill:#ff0000"
           y="413.92123"
           x="506.59457"
           id="tspan4484-8-9"
           sodipodi:role="line" /><tspan
           id="tspan4486-8-7"
           style="font-style:normal;font-variant:normal;font-weight:normal;font-stretch:normal;font-size:15px;font-family:Clean;-inkscape-font-specification:Clean;fill:#000080"
           y="439.0025"
           x="506.59457"
           sodipodi:role="line">20</tspan></text>
    </g>
    <text
       xml:space="preserve"
       style="font-style:normal;font-weight:normal;font-size:40px;line-height:125%;font-family:sans-serif;letter-spacing:0px;word-spacing:0px;fill:#000000;fill-opacity:1;stroke:none;stroke-width:1px;stroke-linecap:butt;stroke-linejoin:miter;stroke-opacity:1"
       x="595.29321"
       y="421.00528"
       id="text5071-4-7"
       sodipodi:linespacing="125%"><tspan
         sodipodi:role="line"
         id="tspan5073-5-1"
         x="595.29321"
         y="421.00528"
         style="font-weight:bold;font-size:12.5px">Schedule</tspan><tspan
         id="tspan5304-6"
         sodipodi:role="line"
         x="595.29321"
         y="436.63028"
         style="font-weight:bold;font-size:12.5px">Test - 2</tspan></text>
    <rect
       style="fill:#e6e6e6;fill-opacity:1;stroke:#2b0000;stroke-width:0.87945473;stroke-opacity:1"
       id="rect4488-6-0-5"
       width="38.838108"
       height="15.120545"
       x="597.03589"
       y="389.19708" />
    <text
       xml:space="preserve"
       style="font-style:normal;font-weight:normal;font-size:40px;line-height:125%;font-family:sans-serif;letter-spacing:0px;word-spacing:0px;fill:#ff0000;fill-opacity:1;stroke:none;stroke-width:1px;stroke-linecap:butt;stroke-linejoin:miter;stroke-opacity:1"
       x="601.80652"
       y="377.13629"
       id="text4482-4-1-1"
       sodipodi:linespacing="125%"><tspan
         sodipodi:role="line"
         id="tspan4484-1-0-6"
         x="601.80652"
         y="377.13629"
         style="font-style:normal;font-variant:normal;font-weight:normal;font-stretch:normal;font-family:Clean;-inkscape-font-specification:Clean;fill:#ff0000" /><tspan
         sodipodi:role="line"
         x="601.80652"
         y="402.21756"
         style="font-style:normal;font-variant:normal;font-weight:normal;font-stretch:normal;font-size:15px;font-family:Clean;-inkscape-font-specification:Clean;fill:#ff0000"
         id="tspan4486-7-4-4">120</tspan></text>
    <rect
       style="fill:#e6e6e6;fill-opacity:1;stroke:#2b0000;stroke-width:0.87945473;stroke-opacity:1"
       id="rect4488-7-1-1-7"
       width="38.838108"
       height="15.120545"
       x="597.03589"
       y="443.99783" />
    <text
       xml:space="preserve"
       style="font-style:normal;font-weight:normal;font-size:40px;line-height:125%;font-family:sans-serif;letter-spacing:0px;word-spacing:0px;fill:#ff0000;fill-opacity:1;stroke:none;stroke-width:1px;stroke-linecap:butt;stroke-linejoin:miter;stroke-opacity:1"
       x="606.85657"
       y="431.93704"
       id="text4482-1-8-7-8"
       sodipodi:linespacing="125%"><tspan
         sodipodi:role="line"
         id="tspan4484-8-9-1-1"
         x="606.85657"
         y="431.93704"
         style="font-style:normal;font-variant:normal;font-weight:normal;font-stretch:normal;font-family:Clean;-inkscape-font-specification:Clean;fill:#ff0000" /><tspan
         sodipodi:role="line"
         x="606.85657"
         y="457.01831"
         style="font-style:normal;font-variant:normal;font-weight:normal;font-stretch:normal;font-size:15px;font-family:Clean;-inkscape-font-specification:Clean;fill:#000080"
         id="tspan4486-8-7-6-1">30</tspan></text>
    <path
       style="fill:none;fill-rule:evenodd;stroke:#000000;stroke-width:2;stroke-linecap:butt;stroke-linejoin:miter;stroke-miterlimit:4;stroke-dasharray:none;stroke-opacity:1"
       d="m 534.60042,271.80642 c 0.24952,-19.73331 26.77041,-19.29097 34.88751,-29.77898 16.32923,-21.09878 20.23265,-41.08536 20.33496,-41.10943"
       id="path5532"
       inkscape:connector-curvature="0"
       sodipodi:nodetypes="csc" />
    <path
       style="fill:none;fill-rule:evenodd;stroke:#000000;stroke-width:2;stroke-linecap:butt;stroke-linejoin:miter;stroke-miterlimit:4;stroke-dasharray:2, 4;stroke-dashoffset:0;stroke-opacity:1"
       d="m 534.39838,272.09518 c 0.87987,41.62867 33.89878,29.39031 55.22247,41.9064"
       id="path5532-4"
       inkscape:connector-curvature="0"
       sodipodi:nodetypes="cc" />
    <path
       style="fill:none;fill-rule:evenodd;stroke:#000000;stroke-width:2;stroke-linecap:butt;stroke-linejoin:miter;stroke-miterlimit:4;stroke-dasharray:2, 4;stroke-dashoffset:0;stroke-opacity:1"
       d="m 534.10949,270.10461 c 0.92248,168.84056 33.60185,105.07953 55.95818,155.84319"
       id="path5532-4-1"
       inkscape:connector-curvature="0"
       sodipodi:nodetypes="cc" />
    <g
       id="g5739"
       transform="matrix(0.02365336,0,0,0.02365336,682.79734,463.43495)">
      <path
         inkscape:connector-curvature="0"
         d="m 772.33115,119.13256 q 237.00005,0 443.00005,-42.999997 206,-43 325,-127 l 0,169.999997 q 0,69 -103,128 -103,59 -280,93.5 -177.00005,34.5 -385.00005,34.5 -208,0 -385,-34.5 -177,-34.5 -280,-93.5 -102.9999952,-59 -102.9999952,-128 l 0,-169.999997 q 118.9999952,84 324.9999952,127 206,42.999997 443,42.999997 z m 0,768 q 237.00005,0 443.00005,-43 206,-43 325,-127 l 0,170 q 0,69 -103,128.00004 -103,59 -280,93.5 -177.00005,34.5 -385.00005,34.5 -208,0 -385,-34.5 -177,-34.5 -280,-93.5 Q 4.3311548,956.13256 4.3311548,887.13256 l 0,-170 q 118.9999952,84 324.9999952,127 206,43 443,43 z m 0,-384 q 237.00005,0 443.00005,-43 206,-43 325,-127 l 0,170 q 0,69 -103,128 -103,59 -280,93.5 -177.00005,34.5 -385.00005,34.5 -208,0 -385,-34.5 -177,-34.5 -280,-93.5 -102.9999952,-59 -102.9999952,-128 l 0,-170 q 118.9999952,84 324.9999952,127 206,43 443,43 z m 0,-1152 q 208,0 385.00005,34.5 177,34.5 280,93.5 103,59 103,128 l 0,128 q 0,69 -103,128 -103,59.000003 -280,93.500003 -177.00005,34.4999996 -385.00005,34.4999996 -208,0 -385,-34.4999996 -177,-34.5 -280,-93.500003 -102.9999952,-59 -102.9999952,-128 l 0,-128 q 0,-69 102.9999952,-128 103,-59 280,-93.5 177,-34.5 385,-34.5 z"
         id="path5730" />
    </g>
    <rect
       style="fill:none;fill-opacity:1;stroke:#cccccc;stroke-width:1.85467052;stroke-miterlimit:4;stroke-dasharray:7.41868183, 1.85467046;stroke-dashoffset:0;stroke-opacity:1"
       id="rect5742-1"
       width="413.15323"
       height="187.44109"
       x="141.81067"
       y="153.72717" />
    <g
       id="g5992"
       transform="matrix(0.88135685,0,0,0.87370174,-71.54401,-73.801366)">
      <rect
         y="416.36163"
         x="256.84567"
         height="43.506733"
         width="82.277977"
         id="rect5759"
         style="fill:none;fill-opacity:1;stroke:#4d4d4d;stroke-width:1.69550419;stroke-miterlimit:4;stroke-dasharray:none;stroke-dashoffset:0;stroke-opacity:1" />
      <rect
         y="420.52948"
         x="328.01678"
         height="35.171051"
         width="5.2618113"
         id="rect5761"
         style="fill:#1a1a1a;fill-opacity:1;stroke:#4d4d4d;stroke-width:2;stroke-miterlimit:4;stroke-dasharray:none;stroke-dashoffset:0;stroke-opacity:1" />
      <rect
         y="420.52948"
         x="318.01678"
         height="35.171051"
         width="5.2618113"
         id="rect5761-9"
         style="fill:#1a1a1a;fill-opacity:1;stroke:#4d4d4d;stroke-width:2;stroke-miterlimit:4;stroke-dasharray:none;stroke-dashoffset:0;stroke-opacity:1" />
      <rect
         y="420.52948"
         x="308.01678"
         height="35.171051"
         width="5.2618113"
         id="rect5761-8"
         style="fill:#1a1a1a;fill-opacity:1;stroke:#4d4d4d;stroke-width:2;stroke-miterlimit:4;stroke-dasharray:none;stroke-dashoffset:0;stroke-opacity:1" />
      <rect
         y="460.23712"
         x="261.0416"
         height="6.9126515"
         width="6.9126511"
         id="rect5790"
         style="fill:#4d4d4d;fill-opacity:1;stroke:#4d4d4d;stroke-width:2.0873487;stroke-miterlimit:4;stroke-dasharray:none;stroke-dashoffset:0;stroke-opacity:1" />
      <rect
         y="460.23712"
         x="328.01508"
         height="6.9126515"
         width="6.9126511"
         id="rect5790-8"
         style="fill:#4d4d4d;fill-opacity:1;stroke:#4d4d4d;stroke-width:2.0873487;stroke-miterlimit:4;stroke-dasharray:none;stroke-dashoffset:0;stroke-opacity:1" />
      <rect
         y="419.99487"
         x="262.41745"
         height="6.3310351"
         width="6.3310366"
         id="rect5761-4-2"
         style="fill:#808000;fill-opacity:1;stroke:#4d4d4d;stroke-width:0.93077445;stroke-miterlimit:4;stroke-dasharray:none;stroke-dashoffset:0;stroke-opacity:1" />
      <rect
         y="441.99579"
         x="262.41745"
         height="6.3310351"
         width="6.3310366"
         id="rect5761-4-2-2"
         style="fill:#800000;fill-opacity:1;stroke:#4d4d4d;stroke-width:0.93077445;stroke-miterlimit:4;stroke-dasharray:none;stroke-dashoffset:0;stroke-opacity:1" />
      <rect
         y="449.90411"
         x="262.41745"
         height="6.3310351"
         width="6.3310366"
         id="rect5761-4-2-6"
         style="fill:#008000;fill-opacity:1;stroke:#4d4d4d;stroke-width:0.93077445;stroke-miterlimit:4;stroke-dasharray:none;stroke-dashoffset:0;stroke-opacity:1" />
      <g
         transform="translate(0.5538749,0.69233298)"
         id="g5859">
        <rect
           style="fill:#000000;fill-opacity:1;stroke:#4d4d4d;stroke-width:1.33809614;stroke-miterlimit:4;stroke-dasharray:none;stroke-dashoffset:0;stroke-opacity:1"
           id="rect5843"
           width="30.294207"
           height="22.539961"
           x="271.62161"
           y="419.5062" />
        <text
           xml:space="preserve"
           style="font-style:normal;font-weight:normal;font-size:5px;line-height:125%;font-family:sans-serif;letter-spacing:0px;word-spacing:0px;fill:#008000;fill-opacity:1;stroke:none;stroke-width:1px;stroke-linecap:butt;stroke-linejoin:miter;stroke-opacity:1"
           x="278.32208"
           y="426.38165"
           id="text5845"
           sodipodi:linespacing="125%"><tspan
             sodipodi:role="line"
             id="tspan5847"
             x="278.32208"
             y="426.38165"> 0 0 1 0</tspan><tspan
             sodipodi:role="line"
             x="278.32208"
             y="432.63165"
             id="tspan5851"> A B C A </tspan><tspan
             sodipodi:role="line"
             x="278.32208"
             y="438.88165"
             id="tspan5855"> 1 1 1 1</tspan><tspan
             sodipodi:role="line"
             x="278.32208"
             y="445.13165"
             id="tspan5857" /></text>
      </g>
      <circle
         r="1.3262239"
         cy="451.55566"
         cx="275.38846"
         id="path5867"
         style="fill:#808000;fill-opacity:1;stroke:#4d4d4d;stroke-width:0.87070799;stroke-miterlimit:4;stroke-dasharray:none;stroke-dashoffset:0;stroke-opacity:1" />
      <circle
         r="1.3262239"
         cy="451.55566"
         cx="279.93787"
         id="path5867-5"
         style="fill:#808000;fill-opacity:1;stroke:#4d4d4d;stroke-width:0.87070799;stroke-miterlimit:4;stroke-dasharray:none;stroke-dashoffset:0;stroke-opacity:1" />
      <circle
         r="1.3262239"
         cy="451.55566"
         cx="284.4873"
         id="path5867-3"
         style="fill:#808000;fill-opacity:1;stroke:#4d4d4d;stroke-width:0.87070799;stroke-miterlimit:4;stroke-dasharray:none;stroke-dashoffset:0;stroke-opacity:1" />
      <circle
         r="1.3262239"
         cy="451.55566"
         cx="289.03671"
         id="path5867-2"
         style="fill:#808000;fill-opacity:1;stroke:#4d4d4d;stroke-width:0.87070799;stroke-miterlimit:4;stroke-dasharray:none;stroke-dashoffset:0;stroke-opacity:1" />
      <circle
         r="1.3262239"
         cy="455.55566"
         cx="275.38846"
         id="path5867-29"
         style="fill:#808000;fill-opacity:1;stroke:#4d4d4d;stroke-width:0.87070799;stroke-miterlimit:4;stroke-dasharray:none;stroke-dashoffset:0;stroke-opacity:1" />
      <circle
         r="1.3262239"
         cy="455.55566"
         cx="279.93787"
         id="path5867-5-2"
         style="fill:#808000;fill-opacity:1;stroke:#4d4d4d;stroke-width:0.87070799;stroke-miterlimit:4;stroke-dasharray:none;stroke-dashoffset:0;stroke-opacity:1" />
      <circle
         r="1.3262239"
         cy="455.55566"
         cx="284.4873"
         id="path5867-3-8"
         style="fill:#808000;fill-opacity:1;stroke:#4d4d4d;stroke-width:0.87070799;stroke-miterlimit:4;stroke-dasharray:none;stroke-dashoffset:0;stroke-opacity:1" />
      <circle
         r="1.3262239"
         cy="455.55566"
         cx="289.03671"
         id="path5867-2-5"
         style="fill:#808000;fill-opacity:1;stroke:#4d4d4d;stroke-width:0.87070799;stroke-miterlimit:4;stroke-dasharray:none;stroke-dashoffset:0;stroke-opacity:1" />
      <circle
         r="1.3262239"
         cy="447.55566"
         cx="275.38846"
         id="path5867-29-9"
         style="fill:#808000;fill-opacity:1;stroke:#4d4d4d;stroke-width:0.87070799;stroke-miterlimit:4;stroke-dasharray:none;stroke-dashoffset:0;stroke-opacity:1" />
      <circle
         r="1.3262239"
         cy="447.55566"
         cx="279.93787"
         id="path5867-5-2-5"
         style="fill:#808000;fill-opacity:1;stroke:#4d4d4d;stroke-width:0.87070799;stroke-miterlimit:4;stroke-dasharray:none;stroke-dashoffset:0;stroke-opacity:1" />
      <circle
         r="1.3262239"
         cy="447.55566"
         cx="284.4873"
         id="path5867-3-8-7"
         style="fill:#808000;fill-opacity:1;stroke:#4d4d4d;stroke-width:0.87070799;stroke-miterlimit:4;stroke-dasharray:none;stroke-dashoffset:0;stroke-opacity:1" />
      <circle
         r="1.3262239"
         cy="447.55566"
         cx="289.03671"
         id="path5867-2-5-1"
         style="fill:#808000;fill-opacity:1;stroke:#4d4d4d;stroke-width:0.87070799;stroke-miterlimit:4;stroke-dasharray:none;stroke-dashoffset:0;stroke-opacity:1" />
    </g>
    <g
       id="g6069"
       transform="translate(-2.6122063,0.92745004)">
      <g
         transform="matrix(1.0062451,0,0,0.62849782,-28.096808,127.91057)"
         id="g6043">
        <path
           style="fill:none;fill-rule:evenodd;stroke:#000000;stroke-width:1px;stroke-linecap:butt;stroke-linejoin:miter;stroke-opacity:1"
           d="m 180,402.3622 0,30 0,10 20,-20 -20,-20"
           id="path6024"
           inkscape:connector-curvature="0" />
        <path
           style="fill:none;fill-rule:evenodd;stroke:#000000;stroke-width:1px;stroke-linecap:butt;stroke-linejoin:miter;stroke-opacity:1"
           d="m 221.20711,402.3622 0,30 0,10 -20,-20 20,-20"
           id="path6024-0"
           inkscape:connector-curvature="0" />
      </g>
      <path
         inkscape:connector-curvature="0"
         id="path6041"
         d="m 173.75954,393.3802 0,-12.55868"
         style="fill:none;fill-rule:evenodd;stroke:#000000;stroke-width:0.79242271px;stroke-linecap:butt;stroke-linejoin:miter;stroke-opacity:1" />
      <path
         inkscape:connector-curvature="0"
         id="path6047"
         d="m 173.76443,369.00707 a 12.5,12.5 0 0 0 -12.44141,11.31445 l 24.87305,0 a 12.5,12.5 0 0 0 -12.43164,-11.31445 z"
         style="fill:none;fill-opacity:1;stroke:#000000;stroke-width:1;stroke-miterlimit:4;stroke-dasharray:none;stroke-dashoffset:0;stroke-opacity:1" />
    </g>
    <g
       id="g6078"
       transform="matrix(0.58459387,0,0,0.58459387,93.95102,135.12365)">
      <circle
         r="27.5"
         cy="399.86221"
         cx="257.5"
         id="path6052"
         style="fill:none;fill-opacity:1;stroke:#000000;stroke-width:1;stroke-miterlimit:4;stroke-dasharray:none;stroke-dashoffset:0;stroke-opacity:1" />
      <path
         inkscape:connector-curvature="0"
         d="m 259.86225,407.61284 q 0,1.47641 -1.03349,2.50989 -1.03348,1.03349 -2.50988,1.03349 -1.47641,0 -2.5099,-1.03349 -1.03348,-1.03348 -1.03348,-2.50989 0,-1.10731 0.64593,-2.03005 0.64592,-0.92275 1.71632,-1.31032 l 0,-12.01425 2.36225,0 0,12.01425 q 1.07039,0.38757 1.71632,1.31032 0.64593,0.92274 0.64593,2.03005 z m 2.36225,0 q 0,-1.42103 -0.62747,-2.65752 -0.62748,-1.2365 -1.73478,-2.06698 l 0,-14.17349 q 0,-1.47641 -1.03349,-2.5099 -1.03348,-1.03348 -2.50988,-1.03348 -1.47641,0 -2.5099,1.03348 -1.03348,1.03349 -1.03348,2.5099 l 0,14.17349 q -1.1073,0.83048 -1.73478,2.06698 -0.62747,1.23649 -0.62747,2.65752 0,2.45453 1.72555,4.18008 1.72555,1.72555 4.18008,1.72555 2.45452,0 4.18007,-1.72555 1.72555,-1.72555 1.72555,-4.18008 z m 2.36225,0 q 0,3.4142 -2.42684,5.84104 -2.42685,2.42684 -5.84103,2.42684 -3.41419,0 -5.84104,-2.42684 -2.42684,-2.42684 -2.42684,-5.84104 0,-3.35881 2.36225,-5.77643 l 0,-13.12156 q 0,-2.45453 1.72555,-4.18008 1.72555,-1.72555 4.18008,-1.72555 2.45452,0 4.18007,1.72555 1.72555,1.72555 1.72555,4.18008 l 0,13.12156 q 2.36225,2.41762 2.36225,5.77643 z m 2.36225,-10.63012 0,2.36225 -3.54338,0 0,-2.36225 3.54338,0 z m 0,-4.7245 0,2.36225 -3.54338,0 0,-2.36225 3.54338,0 z m 0,-4.7245 0,2.36225 -3.54338,0 0,-2.36225 3.54338,0 z"
         id="path4411-3" />
    </g>
    <path
       style="fill:none;fill-rule:evenodd;stroke:#000000;stroke-width:1px;stroke-linecap:butt;stroke-linejoin:miter;stroke-opacity:1"
       d="m 171.14733,324.01678 0,45.41774"
       id="path6076"
       inkscape:connector-curvature="0" />
    <path
       style="fill:none;fill-rule:evenodd;stroke:#000000;stroke-width:1px;stroke-linecap:butt;stroke-linejoin:miter;stroke-opacity:1"
       d="m 183.14733,324.01678 0,45.41774"
       id="path6076-2"
       inkscape:connector-curvature="0" />
    <path
       style="fill:none;fill-rule:evenodd;stroke:#000000;stroke-width:1px;stroke-linecap:butt;stroke-linejoin:miter;stroke-opacity:1"
       d="m 182.74797,368.88065 45.41774,0"
       id="path6076-2-3"
       inkscape:connector-curvature="0" />
  </g>
</svg>
